<?xml version="1.0" encoding="utf-8"?>
<!-- Generator: Adobe Illustrator 22.0.1, SVG Export Plug-In . SVG Version: 6.00 Build 0)  -->
<svg version="1.1" id="Capa_1" xmlns="http://www.w3.org/2000/svg" xmlns:xlink="http://www.w3.org/1999/xlink" x="0px" y="0px"
	 viewBox="0 0 499.8 495.3" style="enable-background:new 0 0 499.8 495.3;" xml:space="preserve">
<style type="text/css">
	.st0{fill:#FFFFFF;}
</style>
<g>
	<path class="st0" d="M206.5,69.7l-22.2-14c-2-1.2-4.4-1.3-6.4-0.2l-22,12.3l-19.6-11.3c-2-1.2-4.5-1.1-6.5,0.1l-19.3,12.1
		c-3,1.8-3.9,5.7-2,8.7c1.8,3,5.7,3.9,8.7,2l16.1-10.1l19.4,11.2c1.9,1.1,4.3,1.1,6.2,0l21.8-12.2l19,12c1,0.7,2.2,1,3.4,1
		c2.1,0,4.1-1,5.3-2.9C210.3,75.4,209.5,71.5,206.5,69.7z"/>
	<path class="st0" d="M499.8,189.7c0-72.4-58.9-131.3-131.3-131.3c-22.4,0-43.5,5.7-62,15.6c-2.6-21.2-10.3-38.4-22.9-51.3
		C270.5,9.3,252.7,1.5,232.2,0.1c-1.5-0.1-3-0.1-4.5-0.1c-31.8,0-54.4,22-59.5,27.5c-2.1,1.7-6.8,4.6-10.7,4.6c-1,0-3.6,0-7.5-4.6
		C135.4,10.3,110.7,0,83.9,0c-18.5,0-36.1,5-49.6,14.1C-1.3,38.3-1.6,90.2,0.9,136.9c1.4,26.8,15.1,69.3,30.9,118.5
		c5.8,18.1,11.8,36.8,17.5,55.5c7.6,25.3,17.5,48.6,37.8,48.6c9.9,0,18.7-5.2,24.8-14.5c3.2-4.9,4.8-9.6,5.2-11c0-0.1,0-0.1,0.1-0.2
		c6-20.5,17.3-79.7,18.3-84.8c0.5-2.3,1-4.7,1.4-7.3c4.8-25.7,9.6-33.2,21.7-33.6l0.2,0c0.9,0,2.5,0,5.1,2.8c2,2.1,5,6.4,8.1,14.8
		c5.4,14.5,8,33,9.8,45.2c0.5,3.7,1,6.9,1.5,9.6c3.8,21.5,14.7,54.3,17.1,59.9c3.6,8.3,13.5,17.3,26.9,17.3c6.1,0,15.2-1.9,24.3-11
		c5.1-5.1,11.3-14.2,21.3-58.7c0.5-2.4,1.1-4.9,1.6-7.2c16.4,16.9,37.3,29.5,60.8,35.7v19.2h-18.6v13.7h18.6v17.4h-18.6v13.7h18.6
		v86.2c0,1.8,0.1,11.6,7.7,19.4c5.8,6.1,14.3,9.2,25,9.2c11.1,0,19.5-3.2,24.9-9.4c6.3-7.3,6-15.9,5.8-18.4v-87h16.1v-13.7h-16.1
		v-17.4h16.1v-13.7h-16.1v-18.3C456.4,303.9,499.8,251.8,499.8,189.7z M238.7,334.1c-4.2,4.2-8.2,5.7-11.6,5.7
		c-5.3,0-9.2-3.7-10.3-6.4c-1.9-4.4-12.4-35.9-15.9-55.9c-3.5-19.9-8.5-87.3-42.2-87.3c-0.2,0-0.5,0-0.7,0
		c-34.3,1-36.5,38.1-40.3,55.3c0,0-12,63-17.9,83.3c0,0-3.9,12.7-12.7,12.7c-8.9,0-16.8-23.2-20.6-35.8
		C46,237.5,20.7,169.8,18.9,135.9c-1.9-35.5-1.4-68.2,10.3-89.7C38.4,49.8,47.9,55.1,50,58c0.1,9.9,0.9,28.1,0.9,28.9
		c0,0.7,0.2,1.4,0.4,2.1c0.9,2.9,5.5,17.9,12.2,24.7c2.9,2.9,10.5,7.9,18.2,12.5v26.4c0,3.5,2.8,6.3,6.3,6.3c3.5,0,6.3-2.8,6.3-6.3
		v-18.9c2.7,1.5,5,2.8,6.5,3.7c1.4,0.8,2.9,1.2,4.4,1.2c3.2,0,6.2-1.7,7.9-4.6c2.4-4.3,0.9-9.8-3.5-12.3
		c-13.9-7.8-30.5-17.9-33.4-20.7c-2.1-2.1-5.4-9.8-7.4-16C68.7,80.6,68,64.9,68,57c0-11-13.3-19.6-26.9-25.4
		c1.1-0.9,2.1-1.7,3.3-2.5c10.9-7.4,25.1-11,39.5-11c20.2,0,40.6,7.2,52.4,21.1c7,8.2,14.4,10.9,21.2,10.9c12.9,0,23.3-9.7,23.3-9.7
		S200,18,227.8,18c1.1,0,2.2,0,3.3,0.1c29.2,1.9,56.2,20.5,58.3,66.9c-31.6,24-52.1,62-52.1,104.6c0,27.1,8.2,52.2,22.3,73.2
		C254.7,287.6,246,326.8,238.7,334.1z M267.5,273.3c0.8,1,1.7,1.9,2.5,2.9C269.2,275.3,268.3,274.3,267.5,273.3z M266.1,271.6
		c0.2,0.3,0.4,0.5,0.6,0.8C266.5,272.1,266.3,271.8,266.1,271.6z M253.5,189.7c0-63.4,51.6-115,115-115c63.4,0,115,51.6,115,115
		s-51.6,115-115,115C305.1,304.7,253.5,253.1,253.5,189.7z M384.1,468.8c0,0,0.5,4.6-2.4,7.8c-3.2,3.6-9.3,4.3-13.9,4.3
		c-6.6,0-11.5-1.6-14.5-4.6c-3.8-3.8-3.7-9.2-3.7-9.2l0-86.6H384v87.4l0,0.4L384.1,468.8z M384,366.8h-34.5l0-17.4H384V366.8z
		 M384,335.7h-34.5l0-16.2c6.2,0.9,12.6,1.4,19.1,1.4c5.2,0,10.4-0.3,15.4-0.9V335.7z"/>
	<path class="st0" d="M466.6,187.9c0-54.1-44-98-98-98s-98,44-98,98s44,98,98,98S466.6,242,466.6,187.9z M286.7,187.9
		c0-45.1,36.7-81.8,81.8-81.8s81.8,36.7,81.8,81.8s-36.7,81.8-81.8,81.8S286.7,233,286.7,187.9z"/>
	<path class="st0" d="M389.4,242.6v-31.2h30.4v-45.9h-30.4v-31.2h-45.9v31.2h-31.9v45.9h31.9v31.2H389.4z M326,197v-17h17.5h14.4
		v-14.4v-16.8h17v16.8V180h14.4h16v17h-16h-14.4v14.4v16.8h-17v-16.8V197h-14.4H326z"/>
</g>
</svg>
