<?xml version="1.0" encoding="utf-8"?>
<!-- Generator: Adobe Illustrator 22.0.1, SVG Export Plug-In . SVG Version: 6.00 Build 0)  -->
<svg version="1.1" id="Capa_1" xmlns="http://www.w3.org/2000/svg" xmlns:xlink="http://www.w3.org/1999/xlink" x="0px" y="0px"
	 viewBox="0 0 844.7 469.4" style="enable-background:new 0 0 844.7 469.4;" xml:space="preserve">
<style type="text/css">
	.st0{fill:#FFFFFF;}
</style>
<path class="st0" d="M779,12c-16.6-9.1-34.7-12-52.2-12c-45.9,0-74.7,27.5-77.8,30.6l-0.8,0.8c-1.5,1.3-8.1,6.5-19.8,6.5
	c-16.3,0-30.2-10-30.4-10.1l-0.6-0.5l-0.6-0.5c-3.4-2.5-34.5-24.1-74.6-24.1c-18.4,0-35.3,5.3-51.5,13.3
	c-24,11.8-39.1,28.8-48.7,47.2c-9.9-19.5-25.3-37.9-49.7-51.2C355.7,2.9,337.5,0,320,0c-45.9,0-74.7,27.5-77.8,30.6l-0.8,0.8
	c-1.5,1.3-8.1,6.5-19.8,6.5c-16.3,0-30.2-10-30.4-10.1l-0.6-0.5l-0.6-0.5c-3.4-2.5-34.5-24.1-74.6-24.1C97.1,2.8,80.1,8,63.9,16
	C-24.5,59.4,4.6,173.2,4.6,173.2c4.4,50,42.7,122.9,79.7,193.5c9.6,18.4,13.6,32.4,17.1,44.8c5,17.7,10.6,37.7,31.7,50.1
	c8.3,4.9,16.8,7.3,25.4,7.3c11.7,0,22.6-4.6,30.8-12.9c13.1-13.4,14.4-31.6,14.3-39.3V290.3c0.9-17.7,11.8-17.7,17-17.7
	c4.3,0,7.2,0.7,8.5,2.1c3.5,3.6,5.3,13.4,5.2,18.8l0,0.9l0,0.4v117.9c-0.5,8.2,0.1,27.1,13.3,41.5c8.8,9.8,21.1,15.1,34.6,15.1
	c33.3,0,45.6-32.5,59.8-70.1c4.8-12.7,10.3-27.2,14.5-34.4c35.9-61.6,55.5-110.7,66.1-144.3c14.9,43.7,41.9,95.5,68.5,146.1
	c9.6,18.4,13.6,32.4,17.1,44.8c5,17.7,10.6,37.7,31.7,50.1c8.3,4.9,16.8,7.3,25.4,7.3c11.7,0,22.6-4.6,30.8-12.9
	c13.1-13.4,14.4-31.6,14.3-39.3V290.3c0.9-17.7,11.8-17.7,17-17.7c4.3,0,7.2,0.7,8.5,2.1c3.5,3.6,5.3,13.4,5.2,18.8l0,0.9l0,0.4
	v117.9c-0.5,8.2,0.1,27.1,13.3,41.5c8.8,9.8,21.1,15.1,34.6,15.1c33.3,0,45.6-32.5,59.8-70.1c4.8-12.7,10.3-27.2,14.5-34.4
	c70.5-120.9,78.2-194.4,78.2-194.4S866,59.7,779,12z M325,346.5c-14.9,25.6-29.6,86.5-42.9,86.5c-13.2,0-11.4-18.9-11.4-18.9V294.8
	c0,0,2.8-58.7-50.1-58.7c-53,0-53.5,53.5-53.5,53.5v127.3c0,0,0.3,15.6-8.7,15.6c-1.9,0-4.2-0.7-6.9-2.3c-16.1-9.5-11-34.7-35-80.4
	C82.4,284.6,45,213.1,41,170.5h94.5V204H302v-33.6h95.4C396.2,182.3,387.4,239.6,325,346.5z M171.9,167.6v-22.7h91.7v22.7H171.9z
	 M402.5,131.6h-4.9H302h-1.9v-23.2H135.5v25H40.9h-3.8c0-20.1,2.2-62.1,44.5-85.6c11.4-6.4,23-8.7,33.8-8.7
	c29.4,0,53.2,17.2,53.2,17.2s22.7,18,53,18s46.4-18,46.4-18s20-20,52.1-20c11,0,23.4,2.3,36.9,8.6
	C403.9,66.9,403.2,119.9,402.5,131.6z M731.8,346.5c-14.9,25.6-29.6,86.5-42.9,86.5c-13.2,0-11.4-18.9-11.4-18.9V294.8
	c0,0,2.8-58.7-50.1-58.7c-53,0-53.5,53.5-53.5,53.5v127.3c0,0,0.3,15.6-8.7,15.6c-1.9,0-4.2-0.7-6.9-2.3c-16.1-9.5-11-34.7-35-80.4
	c-34.2-65.1-71.6-136.6-75.6-179.3h94.5V204h166.5v-33.6h95.4C802.9,182.3,794.1,239.6,731.8,346.5z M578.7,167.6v-22.7h91.7v22.7
	H578.7z M809.3,131.6h-4.9h-95.6h-1.9v-23.2H542.2v25h-94.6h-3.8c0-20.1,2.2-62.1,44.5-85.6c11.4-6.4,23-8.7,33.8-8.7
	c29.4,0,53.2,17.2,53.2,17.2s22.7,18,53,18s46.4-18,46.4-18s20-20,52.1-20c11,0,23.4,2.3,36.9,8.6C810.7,66.9,810,119.9,809.3,131.6
	z"/>
</svg>
