<?xml version="1.0" encoding="utf-8"?>
<!-- Generator: Adobe Illustrator 22.0.1, SVG Export Plug-In . SVG Version: 6.00 Build 0)  -->
<svg version="1.1" id="Capa_1" xmlns="http://www.w3.org/2000/svg" xmlns:xlink="http://www.w3.org/1999/xlink" x="0px" y="0px"
	 viewBox="0 0 406.5 501.5" style="enable-background:new 0 0 406.5 501.5;" xml:space="preserve">
<style type="text/css">
	.st0{fill:#FFFFFF;}
</style>
<g>
	<path class="st0" d="M76.8,444.3H51.4v-44.7c14.2-3.3,24.8-16,24.8-31.2V130.7c0-14.6-9.9-27-23.4-30.8V67.4c0-4.1-3.4-7.5-7.5-7.5
		H15V37.1l59.1-19c3.9-1.3,6.1-5.5,4.8-9.4c-1.3-3.9-5.5-6.1-9.4-4.8L5.2,24.5c-3.1,1-5.2,3.9-5.2,7.1v35.7c0,4.1,3.4,7.5,7.5,7.5
		h30.4v24.5c-14.6,3-25.6,15.9-25.6,31.3v237.8c0,14.9,10.3,27.5,24.2,31v52.4c0,4.1,3.4,7.5,7.5,7.5h25.4v27.2H21.4V474
		c0-4.1-3.4-7.5-7.5-7.5s-7.5,3.4-7.5,7.5v20c0,4.1,3.4,7.5,7.5,7.5h62.9c4.1,0,7.5-3.4,7.5-7.5v-42.2
		C84.3,447.7,81,444.3,76.8,444.3z M61.2,228.9v18.6H27.3v-18.6H61.2z M27.3,215.3v-20h33.9v20H27.3z M61.2,261v16.4H27.3V261H61.2z
		 M61.2,291v18.6H27.3V291H61.2z M44.3,113.7L44.3,113.7c9.3,0,17,7.6,17,17v51H27.3v-51C27.3,121.3,34.9,113.7,44.3,113.7z
		 M27.3,368.4v-45.2h33.9v45.2c0,9.3-7.6,17-17,17S27.3,377.8,27.3,368.4z"/>
	<path class="st0" d="M195.2,0.7C195.1,0.7,195.1,0.7,195.2,0.7l-44.4,0.2c-2.5-0.2-11.5-0.2-19.4,6.8c-7.5,6.7-11.3,17.4-11.3,31.7
		c0,14.8,3.8,25.4,11.4,31.6c7.3,6,15.3,5.6,18.1,5.2h6.2v23.6c-13.5,3.7-23.4,16.1-23.4,30.8v337.8c0,17.6,14.3,32,32,32
		c17.6,0,32-14.3,32-32V130.7c0-15.4-11-28.3-25.5-31.3V68.8c0-4.1-3.4-7.5-7.5-7.5H149c-0.6,0-0.9,0-1.4,0.1
		c-0.6,0.1-3.9,0.4-6.8-2.1c-3.8-3.2-5.7-10.1-5.7-19.9c0-9.6,2.1-16.7,6.1-20.4c3.6-3.3,7.9-3.2,8.5-3.2c0.3,0,0.5,0,0.8,0
		l44.7-0.2c4.1,0,7.5-3.4,7.5-7.5C202.6,4,199.3,0.7,195.2,0.7z M147.4,326.1v-16.4h33.9v16.4H147.4z M181.3,339.6v18.6h-33.9v-18.6
		H181.3z M147.4,296v-18.6h33.9V296H147.4z M147.4,263.9v-20h33.9v20H147.4z M164.3,485.4L164.3,485.4c-9.3,0-17-7.6-17-17v-96.6
		h33.9v96.6C181.3,477.8,173.7,485.4,164.3,485.4z M181.3,130.7v99.6h-33.9v-99.6c0-9.3,7.6-17,17-17h0
		C173.7,113.7,181.3,121.3,181.3,130.7z"/>
	<path class="st0" d="M406.5,90.8c0-50.1-40.7-90.8-90.8-90.8c-50.1,0-90.8,40.7-90.8,90.8c0,38.2,23.6,70.9,57,84.3v11.5v281.7
		c0,17.6,14.3,32,32,32s32-14.3,32-32V186.7v-10.2C381.2,164,406.5,130.3,406.5,90.8z M330.9,211.8h-33.9v-25.1h33.9V211.8z
		 M296.9,258.9h33.9v19.4h-33.9V258.9z M296.9,245.3v-19.9h33.9v19.9H296.9z M313.9,485.4c-9.3,0-17-7.6-17-17V291.9h33.9v176.5
		C330.9,477.8,323.2,485.4,313.9,485.4z M315.7,166.7c-41.8,0-75.8-34-75.8-75.8s34-75.8,75.8-75.8s75.8,34,75.8,75.8
		S357.5,166.7,315.7,166.7z"/>
	<path class="st0" d="M373.4,87.3c-1.8-28.8-25.1-52.1-53.9-53.9c-6.8-0.4-13.3,0.3-19.4,2.1c-5.5,1.6-7.3,8.5-3.2,12.5
		c1.9,1.9,4.8,2.6,7.4,1.9c5.2-1.5,10.8-2,16.6-1.3c19.5,2.3,35.2,17.9,37.4,37.5c0.7,5.8,0.2,11.4-1.3,16.6c-0.7,2.6,0,5.5,1.9,7.4
		c4,4,11,2.3,12.5-3.2C373,100.6,373.8,94.1,373.4,87.3z"/>
	<path class="st0" d="M330.1,131.3c-5.5,2-11.5,2.9-17.8,2.4c-20.9-1.6-37.7-18.4-39.3-39.3c-0.5-6.3,0.4-12.3,2.4-17.8
		c1-2.8,0.4-5.9-1.7-7.9v0c-3.9-3.9-10.5-2.5-12.3,2.6c-2.4,6.7-3.7,14-3.4,21.6c1,30.2,25.6,54.9,55.9,55.9
		c7.6,0.2,14.9-1,21.6-3.4c5.1-1.9,6.5-8.5,2.6-12.3C336,130.9,332.9,130.3,330.1,131.3z"/>
</g>
</svg>
