<?xml version="1.0" encoding="utf-8"?>
<!-- Generator: Adobe Illustrator 22.0.1, SVG Export Plug-In . SVG Version: 6.00 Build 0)  -->
<svg version="1.1" id="Capa_1" xmlns="http://www.w3.org/2000/svg" xmlns:xlink="http://www.w3.org/1999/xlink" x="0px" y="0px"
	 viewBox="0 0 743.5 78.1" style="enable-background:new 0 0 743.5 78.1;" xml:space="preserve">
<style type="text/css">
	.st0{fill-rule:evenodd;clip-rule:evenodd;fill:#2BAFDA;}
</style>
<g>
	<path class="st0" d="M0.3,44.7c1.2-13.9,11.3-25.1,25.1-27.4c13.2-2.2,25.3,3.4,32,15.4c0.8,1.4,0.7,1.3-0.9,1.5
		c-3.7,0.5-6.1-0.8-8.6-3.8c-5.3-6.1-12.3-8.5-20.5-7.4C16.3,24.5,8,33.4,6.9,44.8c-1.2,12.8,6.3,24.5,19.5,26.9
		c9.1,1.7,16.8-1.2,22.7-8.4c1.3-1.6,2.6-2.6,4.7-2.3c0.9,0.2,1.9,0.1,2.8,0c1.2-0.1,1.5,0.2,0.9,1.3c-1.8,3.6-4.3,6.6-7.4,9
		c-6,4.7-12.9,7-20.5,6.6c-7.3-0.3-13.9-2.8-19.5-7.7C5,65.6,2,59.9,0.6,53.1c-0.1-0.4,0.1-1-0.6-1c0-0.2,0-0.4,0-0.6
		c0.5-0.3,0.3-0.8,0.3-1.2c0-0.4,0.2-0.9-0.3-1.2C0,48,0,47,0,46C0.4,45.6,0.3,45.1,0.3,44.7z"/>
	<path class="st0" d="M116.6,0c0.5,1.1,1,2.3,1.5,3.4c0.4,0.8,0.3,1.3-0.5,1.7c-5.7,3-11.4,6.1-17.1,9.1c-0.8,0.4-1.2,0.3-1.6-0.5
		c-1.6-2.9-1.6-2.8,1.1-4.4c5.4-3.1,10.8-6.2,16.3-9.3C116.4,0,116.5,0,116.6,0z"/>
	<path class="st0" d="M0.3,44.7c0,0.4,0.2,0.9-0.3,1.2c0-0.4,0-0.8,0-1.2C0.1,44.7,0.2,44.7,0.3,44.7z"/>
	<path class="st0" d="M0,49c0.5,0.3,0.2,0.8,0.3,1.2c-0.1,0-0.2,0-0.3,0C0,49.9,0,49.5,0,49z"/>
	<path class="st0" d="M0,50.3c0.1,0,0.2,0,0.3,0c0,0.4,0.3,0.9-0.3,1.2C0,51.1,0,50.7,0,50.3z"/>
	<path class="st0" d="M438.4,32.7c-0.4,0.6-0.2,1.2-0.2,1.7c0,13.6,0.1,27.2,0.1,40.9c0,1.3-0.2,1.8-1.7,1.7c-2-0.1-4-0.1-6,0
		c-1.3,0.1-1.6-0.4-1.6-1.7c0-12.7,0-25.4,0-38.1c0-6,0-11.9,0-17.9c0-1.1,0.3-1.5,1.4-1.5c2,0.1,4,0.1,6,0c1.1,0,1.8,0.3,2.4,1.2
		c9.6,14.1,19.2,28.2,28.8,42.3c0.2,0.3,0.4,0.5,0.6,0.7c0.5-0.2,0.3-0.6,0.3-0.9c0-13.9,0-27.8-0.1-41.6c0-1.3,0.3-1.8,1.7-1.7
		c1.8,0.1,3.7,0.1,5.5,0c1.5-0.1,1.9,0.3,1.9,1.8c-0.1,16.7,0,33.3,0,50c0,2.1,0,4.1,0,6.2c0,0.9-0.3,1.3-1.1,1.1
		c-0.1,0-0.2,0-0.3,0c-2.4-0.1-5.2,0.8-7.1-0.3c-1.8-1.1-2.8-3.7-4.2-5.6c-8.5-12.4-17.1-24.9-25.6-37.3
		C438.9,33.4,438.7,33.1,438.4,32.7z"/>
	<path class="st0" d="M743.5,47.4c-0.1,17.8-14,30.6-30.8,30.7c-17,0.1-30.8-13-31.1-29.4c-0.4-18.2,12.9-31.9,30.9-31.9
		C730.2,16.8,743.2,30.2,743.5,47.4z M712.6,25.2c-12.2,0-21.5,9.6-21.5,22.2c0,12.6,9.3,22.3,21.4,22.3c12,0,21.5-9.6,21.5-22.1
		C733.9,34.3,723.9,25,712.6,25.2z"/>
	<path class="st0" d="M578,47.5c0-9.4,0-18.7,0-28.1c0-0.7-0.2-1.5,1.1-1.5c6.8,0.1,13.7,0,20.5,0.1c5.2,0.1,10.3,1.2,14.8,4
		c7.1,4.5,10.9,11.1,12.2,19.3c1.1,7.1,0.6,14.1-2.4,20.7c-3.7,8.1-10.2,12.4-18.7,14.2c-3.4,0.7-6.8,0.8-10.3,0.8
		c-5.2,0-10.5,0-15.7,0c-1.1,0-1.5-0.3-1.5-1.5C578.1,66.2,578,56.8,578,47.5z M587.5,47.5c0,6.5,0,13.1,0,19.6c0,0.1,0,0.1,0,0.2
		c0,0.7-0.1,1.4,1,1.4c4-0.1,7.9,0.1,11.9-0.2c8.3-0.5,14.5-5.9,16.4-13.9c1-4.5,1.1-9,0.1-13.4c-1.8-8.2-7.1-13.2-15.2-14.5
		c-4.2-0.6-8.5-0.3-12.8-0.4c-1.1,0-1.4,0.3-1.4,1.4C587.6,34.2,587.5,40.9,587.5,47.5z"/>
	<path class="st0" d="M650.2,50.3c3.1-0.1,6,0,9-0.5c5.3-0.9,7.9-5.3,8.5-9.3c0.3-1.8,0.3-3.6-0.2-5.4c-1.3-4.9-4.5-7.9-9.5-8.5
		c-4-0.5-8.1-0.3-12.2-0.3c-0.7,0-0.9,0.2-0.9,0.9c0,0.4,0,0.7,0,1.1c0,15.7,0,31.4,0,47.2c0,1.3-0.3,1.7-1.6,1.6
		c-2.1-0.1-4.2-0.1-6.3,0c-1.3,0.1-1.7-0.3-1.7-1.6c0.1-6.6,0-13.2,0-19.7c0-12,0-24,0-36.1c0-1.4,0.3-1.7,1.7-1.7
		c7.1,0.2,14.2-0.3,21.3,0.3c4.2,0.3,8.3,1.1,11.7,3.7c4,3.1,6.1,7.3,6.8,12.2c0.8,5.9-0.3,11.4-4.3,16c-2.2,2.5-4.9,3.9-10.1,5
		c4.6,7.2,9.1,14.4,13.8,21.9c-2.7,0-5.1-0.1-7.6,0c-1.9,0.1-2.9-0.6-3.9-2.2c-4.6-7.7-9.3-15.4-13.9-23.1
		C650.6,51.4,650.2,51,650.2,50.3z"/>
	<path class="st0" d="M417.7,76.9c-1.6,0-3.6,0.5-4.8-0.1c-1.3-0.7-1.4-2.8-2-4.3c-1.1-2.7-2.3-5.5-3.3-8.3
		c-0.3-0.8-0.7-1.2-1.7-1.2c-7.6,0-15.1,0-22.7,0c-0.9,0-1.4,0.4-1.7,1.2c-1.4,3.8-3,7.5-4.3,11.3c-0.4,1.2-1.1,1.6-2.4,1.5
		c-2.4-0.1-4.7-0.1-7.1,0c-1.4,0.1-1.4-0.3-0.9-1.5c6.7-16.3,13.4-32.6,20.1-48.9c1-2.5,2.1-4.9,3-7.4c0.4-0.9,0.8-1.4,1.9-1.3
		c1.8,0.1,3.7,0.1,5.5,0c1.3-0.1,1.9,0.4,2.3,1.6c3.7,9.4,7.5,18.7,11.3,28.1c3.8,9.3,7.5,18.6,11.3,27.9c0.5,1.2,0.3,1.6-1,1.5
		c-1.2-0.1-2.5,0-3.7,0C417.7,76.9,417.7,76.9,417.7,76.9z M394.4,29c-3.3,8.7-6.4,17-9.5,25.3c-0.4,1.1,0.1,1.1,0.9,1.1
		c5.7,0,11.5-0.1,17.2,0c1.4,0,1.4-0.4,0.9-1.5c-1.7-4.4-3.4-8.8-5.1-13.2C397.5,37,396,33.2,394.4,29z"/>
	<path class="st0" d="M535.2,47.3c0-9.2,0-18.5,0-27.7c0-1.4,0.4-1.7,1.7-1.7c10,0.1,19.9,0,29.9,0c1.2,0,1.7,0.2,1.6,1.5
		c-0.1,1.7-0.1,3.5,0,5.2c0.1,1.3-0.3,1.7-1.6,1.6c-6.7-0.1-13.5,0-20.2-0.1c-1.6,0-2,0.4-1.9,1.9c0.1,4.5,0.1,8.9,0,13.4
		c0,1.1,0.3,1.4,1.4,1.4c6.8,0,13.6,0,20.3-0.1c1.4,0,1.8,0.4,1.7,1.7c-0.1,1.6-0.1,3.3,0,4.9c0.1,1.5-0.5,1.7-1.8,1.7
		c-6.7-0.1-13.4,0-20-0.1c-1.2,0-1.6,0.3-1.6,1.5c0.1,4.8,0.1,9.7,0,14.5c0,1.1,0.3,1.4,1.4,1.4c6.9,0,13.8,0,20.7,0
		c1.2,0,1.7,0.3,1.7,1.6c-0.1,1.8-0.1,3.7,0,5.5c0,0.9-0.2,1.3-1.2,1.3c-10.3,0-20.5,0-30.8,0c-1.4,0-1.2-0.8-1.2-1.6
		C535.2,66,535.2,56.7,535.2,47.3z"/>
	<path class="st0" d="M329.5,59.5c0.1,0,0.1,0,0.2,0c1.3,0,2.8-0.4,4,0.1c1.3,0.6,0.7,2.4,1.2,3.6c1.6,4.7,6.1,7.6,10.8,6.7
		c4.9-0.9,8.4-4.9,8.2-9.7c-0.1-3.3-1.9-5.4-4.7-6.9c-3-1.6-6.1-2.6-9.3-3.7c-3.4-1.2-6.7-2.6-9.4-5c-6.2-5.8-6.3-16.1-0.1-22.3
		c6.8-6.9,19.3-7.4,26.6-1.1c3.3,2.9,4.7,6.6,5.2,10.8c0.1,0.8-0.2,1.1-1,1.1c-2.4,0-4.8-0.1-7.2,0c-1,0-1.1-0.6-1.3-1.3
		c-0.8-3.4-2.5-5.9-6.1-6.8c-6.3-1.5-11.8,3-11.1,9.2c0.2,2.2,1.4,3.7,3.2,4.8c2.5,1.7,5.4,2.7,8.3,3.7c2.8,1.1,5.6,2.3,8.3,3.8
		c9.5,5.3,9.9,15.2,6,22.5c-3,5.7-8.2,8.3-14.4,8.8c-4.3,0.4-8.5,0-12.4-2.1c-6.2-3.2-8.9-8.6-9.4-15.4c-0.1-0.8,0.3-1.1,1-1
		C327,59.5,328.2,59.5,329.5,59.5z"/>
	<path class="st0" d="M488.8,47.4c0-9.3,0-18.6,0-27.9c0-1.3,0.3-1.6,1.6-1.6c7.1,0.2,14.2-0.2,21.3,0.3c6.5,0.5,11.8,2.9,14.8,9
		c3.6,7.3,3.1,14.6-1.5,21.3c-3.2,4.7-8.2,6.4-13.6,6.7c-3.8,0.2-7.7,0.2-11.6,0.1c-1.2,0-1.6,0.3-1.6,1.6c0.1,6.1,0,12.2,0.1,18.3
		c0,1.3-0.3,1.8-1.7,1.7c-2-0.1-4.1-0.1-6.2,0c-1.3,0.1-1.6-0.3-1.6-1.6C488.8,66,488.8,56.7,488.8,47.4z M498.2,36.6
		c0,2.6,0,5.2,0,7.9c0,2.7,0,2.7,2.7,2.7c3.6,0,7.2,0.2,10.7-0.5c5.1-1.1,8-4.7,8-9.9c0-5.2-2.9-8.7-8-9.8
		c-4.2-0.9-8.5-0.5-12.7-0.5c-0.9,0-0.7,0.7-0.7,1.2C498.2,30.5,498.2,33.5,498.2,36.6z"/>
	<path class="st0" d="M161.6,66.7c0-7.4,0-14.5,0-21.5c0-8.6,0-17.2,0-25.7c0-1.3,0.4-1.7,1.7-1.6c1.5,0.1,3.5-0.6,4.5,0.3
		c1.1,1,0.3,3,0.3,4.6c0,17.4,0,34.8,0.1,52.3c0,1.5-0.5,1.8-1.9,1.9c-3.3,0.3-5.4-0.7-7.4-3.7c-7.3-10.9-15-21.4-22.5-32.1
		c-3.1-4.4-6.2-8.8-9.3-13.2c-0.4,0.4-0.2,0.9-0.2,1.2c0,15.3,0,30.6,0,45.9c0,1.4-0.3,2-1.8,1.8c-1.1-0.1-2.3-0.1-3.4,0
		c-0.8,0-1.2-0.3-1.1-1.1c0-0.3,0-0.6,0-0.9c0-18.3,0-36.7,0-55c0-1.6,0.5-1.8,2-2c3.6-0.5,5.5,1.1,7.5,4
		c10.1,14.8,20.5,29.4,30.8,44C160.9,66,161.2,66.2,161.6,66.7z"/>
	<path class="st0" d="M304.4,77.1c-3.3,0-3.2,0-4.5-3c-1.7-4-3.3-8-5-12.1c-0.4-1.1-1-1.6-2.3-1.6c-8.1,0.1-16.2,0.1-24.4,0
		c-1.1,0-1.6,0.3-2,1.4c-1.8,4.6-3.7,9.1-5.5,13.7c-0.4,1.1-1,1.8-2.4,1.6c-1.3-0.1-2.6,0-3.8,0c-1.1,0-1.6-0.3-1.1-1.6
		c5.8-13.8,11.5-27.5,17.3-41.3c2.1-5,4.2-10,6.3-15.1c0.4-0.9,0.8-1.3,1.8-1.2c1.1,0.1,2.2,0.1,3.2,0c1.4-0.2,2.1,0.4,2.6,1.7
		c5.4,13.2,10.8,26.4,16.3,39.5c2.1,5.2,4.3,10.3,6.4,15.5c1,2.3,0.9,2.5-1.7,2.5C305.4,77.1,304.9,77.1,304.4,77.1z M269,54.9
		c7.6,0,14.9,0,22.3,0c1.3,0,0.7-0.8,0.5-1.3c-2.9-7.3-5.8-14.7-8.7-22c-0.8-1.9-1.6-3.8-2.4-5.9C276.6,35.5,272.8,45.1,269,54.9z"
		/>
	<path class="st0" d="M195.5,47.9c0-8.8,2.8-16.1,8.8-22.2c4.9-4.9,10.8-7.7,17.7-8.5c13.6-1.5,23.7,4,30.7,15.5
		c0.8,1.3,0.6,1.4-0.9,1.5c-3.3,0.2-5.8-0.2-8.2-3.3c-4.7-6-11.5-8.7-19.2-8.1c-10.8,0.8-19.3,8-21.7,18.9
		c-2.7,11.8,3.2,24.6,15.5,29.1c9.5,3.5,21.2-0.1,27-8.4c0.7-1.1,1.5-1.5,2.8-1.4c1.2,0.1,2.4,0,3.5,0c2,0,2,0.1,1.1,1.8
		c-2.5,4.6-6.1,8.2-10.6,10.9c-13.1,7.7-29.7,5-39.5-6.6C197.7,61.6,195.5,55,195.5,47.9z"/>
	<path class="st0" d="M66.9,47.3c0-9.2,0-18.5,0-27.7c0-1.2,0.3-1.8,1.6-1.7c1.2,0.1,2.5,0.1,3.7,0c0.9,0,1.3,0.3,1.2,1.2
		c-0.1,1.7,0,3.5,0,5.2c0,15.1,0,30.1,0,45.2c0,1.4,0.3,1.7,1.7,1.7c6.4-0.1,12.8,0,19.3-0.1c1.2,0,1.7,0.2,1.6,1.5
		c-0.1,1-0.1,2.1,0,3.1c0,0.8-0.3,1.1-1.1,1.1c-8.9,0-17.9,0-26.8,0c-1.2,0-1.1-0.7-1.1-1.5C66.9,66,66.9,56.6,66.9,47.3z"/>
	<path class="st0" d="M108.6,47.5c0,9.2,0,18.4,0,27.6c0,1.5-0.4,1.9-1.8,1.8c-1-0.1-2-0.1-2.9,0c-1.3,0.1-1.8-0.3-1.8-1.7
		c0.1-18.5,0.1-37,0-55.5c0-1.5,0.4-1.9,1.8-1.8c1.1,0.1,2.2,0.1,3.2,0c1.3-0.1,1.5,0.4,1.5,1.6C108.6,28.8,108.6,38.2,108.6,47.5z"
		/>
	<path class="st0" d="M186.3,47.4c0,9.2,0,18.5,0,27.7c0,1.3-0.3,1.9-1.7,1.7c-1.2-0.1-2.5-0.1-3.7,0c-0.9,0-1.2-0.3-1.1-1.2
		c0-0.3,0-0.5,0-0.8c0-18.4,0-36.8,0-55.2c0-1.5,0.4-2,1.9-1.9c1.5,0.2,3.4-0.6,4.3,0.3c1,1,0.3,2.9,0.3,4.4
		C186.3,30.9,186.3,39.1,186.3,47.4z"/>
</g>
</svg>
