<?xml version="1.0" encoding="utf-8"?>
<!-- Generator: Adobe Illustrator 22.0.1, SVG Export Plug-In . SVG Version: 6.00 Build 0)  -->
<svg version="1.1" id="Capa_1" xmlns="http://www.w3.org/2000/svg" xmlns:xlink="http://www.w3.org/1999/xlink" x="0px" y="0px"
	 viewBox="0 0 503.1 506.3" style="enable-background:new 0 0 503.1 506.3;" xml:space="preserve">
<style type="text/css">
	.st0{fill:#FFFFFF;}
</style>
<path class="st0" d="M500.1,246.9c-1.4-2.1-28.9-42.4-76.4-62.7c24.3-51.7,5.6-104.1,4.7-106.6l-1.8-5l-5.2-1
	c-2.4-0.5-48.9-9.3-96.1,8.7c-20.2-48-61-75.9-63.1-77.2l-4.4-3l-4.8,2.2c-2.4,1.1-53,25-72.2,79.1C132.5,61.9,84.2,71,81.8,71.5
	l-5.2,1l-1.8,5C73.8,80,55,132.4,79.4,184.1c-47.5,20.3-75,60.7-76.4,62.7l-3,4.4l2.2,4.8c1.1,2.4,25.2,53.4,79.7,72.5
	C58.4,379,68.4,432.2,69,434.7l1,5.2l5,1.8c1.5,0.6,21.6,7.8,48.8,7.8c16.9,0,36.6-2.8,56.2-11.7c21.9,45,64.6,65.2,66.8,66.2
	l4.8,2.2l4.4-3c2-1.3,38.3-26.1,59.4-69.1c22,11.8,44.6,15.4,63.6,15.4c27.2,0,47.3-7.2,48.8-7.8l5-1.8l1-5.2
	c0.5-2.6,10.6-55.7-13-106.1c54.5-19.1,78.6-70.1,79.7-72.5l2.2-4.8L500.1,246.9z M412.1,89.3c3.7,13.7,11.3,52-6.5,88.4
	c-4.7-1.3-9.6-2.4-14.7-3.3c-21.7-3.6-43.7-1.2-65.1,7c9.5-22.8,12.5-46.2,8.7-69.3c-0.8-4.8-1.8-9.4-3.1-13.9
	C365,85.3,399.1,87.7,412.1,89.3z M190,410.3c-0.9-3.3-1.6-6.7-2.2-10.3c-5.1-31.2-2.1-56.7,11.1-80.8c13.5-7.8,26.8-18.5,40.3-32.6
	c-1,18.7-0.1,35,2.6,49.6c-6.6,30.7-23,53.3-51.5,73.7C190.3,410.2,190.1,410.2,190,410.3z M193.3,109c2,1.2,3.9,2.5,5.8,3.9
	c21.5,15.3,35.8,37.6,42.7,66.4c-1.2,5.8-2.2,11.8-3,17.9c-1,8.7-1.4,16.8-1.4,24.2c-4.9-4.8-10.4-9.8-16.6-14.7
	c-2.2-1.7-4.4-3.4-6.6-5C193.7,173.9,187.8,145.3,193.3,109z M315.8,115.2c4.6,27.5-2,54.8-19.5,81.4c-4.8,3.1-9.5,6.5-14.2,10.2
	c-6.2,4.9-11.7,9.9-16.6,14.7c0-7.4-0.4-15.6-1.4-24.2c-0.7-6.2-1.7-12.1-3-17.9c6.9-28.8,21.2-51.1,42.7-66.4
	c3.3-2.3,6.6-4.4,10-6.4C314.7,109.4,315.3,112.3,315.8,115.2z M200.8,215.5c8.1,10.5,18,21,30.2,31.8
	c-58.4,3.5-93.2-11.8-123.2-52.5c2.4-0.6,4.9-1.1,7.4-1.5C144.1,188.4,172.8,195.9,200.8,215.5z M213.4,270
	c-11.9,11.8-21.2,23.4-28.3,35.1c-22.2,11.6-45.6,14.7-73.7,10.9c18.7-25.3,47.3-40.3,85-44.8C202.3,270.6,208,270.2,213.4,270z
	 M263.8,286.7c9.1,9.5,18.1,17.5,27.1,24c13.9,21.6,24.1,49.1,18.9,80.4c-0.8,4.9-2,9.7-3.3,14.3c-24.7-19.2-39.2-40.7-45.3-69.1
	C264,321.7,264.8,305.4,263.8,286.7z M296.2,285.4c-4.5-5.7-9.1-10.9-13.6-15.4c7.2-0.1,15.4,0.3,24,1.3c37.8,4.5,66.3,19.5,85,44.8
	c-33.6,4.6-60.7-0.7-86.8-18.8C302.2,293.3,299.3,289.3,296.2,285.4z M277,247.5c7.5-6.7,16.5-15.7,25.1-26.6
	c2.7-3.4,5.3-6.9,7.7-10.4c25.5-15.9,51.7-21.7,78-17.3c2.5,0.4,5,0.9,7.4,1.5C366.1,234.3,332.5,249.9,277,247.5z M256,22.1
	c10.6,8.3,37.5,31.6,51.9,66.1c-5.1,2.7-10.1,5.8-15,9.3c-18.1,12.9-32,30.4-41.4,51.6c-9.4-21.2-23.3-38.7-41.4-51.6
	c-4-2.9-8.1-5.5-12.3-7.8C211,51,243.7,29.1,256,22.1z M91,89.3c13.5-1.7,49.7-4.2,84.6,10.5c-0.2,1.1-0.4,2.3-0.6,3.4
	c-4.9,30.2-2.6,56.5,7.1,80.2c-23-9.7-46.6-12.8-69.9-8.9c-5.1,0.8-9.9,2-14.7,3.3C79.6,141.3,87.3,103,91,89.3z M22.1,253
	c8.3-10.7,31.9-37.9,66.8-52.2c0.7,1.1,1.5,2.1,2.2,3.2c20,27.8,43,45.8,70.4,54.9c0.2,0.1,0.5,0.2,0.7,0.2
	c-28.4,8.9-51.2,24.9-67.2,47.2c-1.2,1.7-2.4,3.5-3.6,5.3C51.6,298.9,29.2,265.5,22.1,253z M86.8,425.6c-1.8-14.5-4.6-54.9,13.9-92
	c0.8,0.2,1.7,0.3,2.5,0.4c10.2,1.7,20,2.5,29.4,2.5c14.4,0,27.9-2,40.6-6c-7.3,21.7-8.7,45.6-4.3,72.6c1,6,2.3,11.6,4,17
	C137.2,436.6,100.2,429.2,86.8,425.6z M250,484.3c-11-6.3-38.2-24.2-53.2-55.6c1.6-1,3.1-2.1,4.7-3.2c23.5-16.9,40-36,50.1-58
	c9.7,21.3,25.5,39.9,47.9,56.4C284.6,455.2,260,476.5,250,484.3z M416.3,425.6c-14.3,3.9-55.5,12-93.3-9c2.4-7.1,4.4-14.5,5.7-22.3
	c3.7-22.3,1.1-44.8-7.6-66.8c15.3,6.1,31.6,9.1,49.4,9.1c9.4,0,19.2-0.8,29.4-2.5c0.8-0.1,1.7-0.3,2.5-0.4
	C420.8,370.6,418,411.1,416.3,425.6z M411.7,311.7c-1.1-1.8-2.3-3.5-3.6-5.3c-15.9-22.3-38.8-38.3-67.2-47.2
	c0.2-0.1,0.5-0.2,0.7-0.2C369,249.8,392,231.8,412,204c0.8-1.1,1.5-2.1,2.2-3.2c34.7,14.3,58.4,41.5,66.8,52.2
	C473.9,265.5,451.6,298.9,411.7,311.7z"/>
</svg>
