<?xml version="1.0" encoding="utf-8"?>
<!-- Generator: Adobe Illustrator 22.0.1, SVG Export Plug-In . SVG Version: 6.00 Build 0)  -->
<svg version="1.1" id="Capa_1" xmlns="http://www.w3.org/2000/svg" xmlns:xlink="http://www.w3.org/1999/xlink" x="0px" y="0px"
	 viewBox="0 0 447.5 500" style="enable-background:new 0 0 447.5 500;" xml:space="preserve">
<style type="text/css">
	.st0{fill:#35B3DC;}
</style>
<g>
	<g>
		<path class="st0" d="M123.4,296.1c0.2-0.3,4.5-8.4,16-5.6c4.1,1,6.4,3.5,7.6,5.9c1.8,3.4,5.1,5.7,8.9,6.2h0
			c9,1.2,16-8.1,12.1-16.4c-3.6-7.6-10.7-14.8-23.4-17.8c-22.9-5.4-37.1,8.9-41.4,17.3c-2.9,5.6-0.7,12.4,4.9,15.3
			c0.8,0.4,1.7,0.8,2.6,1C115.7,303.1,121,300.8,123.4,296.1z"/>
		<path class="st0" d="M314.6,268.4c-22.9-5.4-37.1,8.9-41.4,17.3c-2.9,5.6-0.7,12.4,4.9,15.3c0.8,0.4,1.7,0.8,2.6,1
			c4.9,1.2,10.2-1.1,12.7-5.8c0.2-0.3,4.5-8.4,16-5.6c4.1,1,6.4,3.5,7.6,5.9c1.8,3.4,5.1,5.7,8.9,6.2c9,1.2,16-8.1,12.1-16.4
			C334.4,278.6,327.3,271.4,314.6,268.4z"/>
		<path class="st0" d="M318.7,357.5c-5.7-2.7-12.4-0.3-15.1,5.3c-0.2,0.4-18.5,37.2-84.6,37.2c-47.5,0-71.2-20.3-80.6-31.3
			c-3.4-3.9-9-5.1-13.6-2.8h0c-6.6,3.2-8.5,11.8-3.8,17.5c12.6,15.1,41.6,39.3,98,39.3c80.2,0,104.1-48.1,105.1-50.1
			C326.8,367,324.4,360.2,318.7,357.5z"/>
	</g>
	<g>
		<path class="st0" d="M432.7,264.3c-9.5-8.4-20.7-10.2-27.5-10.5l0.3-162.7c0.1-5-0.4-28.3-17.2-45.9c-8-8.3-22.6-18.3-46.8-18.3
			c-9.5,0-17.8,5.5-21.8,13.5C296.8,27,242.8,0,178.1,0c-8.9,0-17.9,0.5-26.6,1.6C107.7,6.8,73.4,20.6,49.4,42.8
			C32.8,58,21.6,76.6,14.9,99.6c-1.4,4.7-1.2,9.6,0.2,14.1C-6,135.5,1,155.5,1.4,156.4c0.7,1.8,1.9,3.3,3.5,4.2
			c12.3,7.7,23.8,10.5,33.7,10.5c1.4,0,2.8-0.1,4.1-0.2v82.9c-6.9,0.4-17.4,2.5-26.4,10.4C6.5,273,1.6,285.9,1.6,302.6
			c0,26.8,13.4,40.2,24.6,46.6c8.6,5,17.1,6.5,21.5,7c6,30.5,19.2,69.2,48.2,98.9c29,29.8,67.6,44.9,114.9,44.9
			c38.2,0,72-7.7,100.5-22.7c24.3-12.9,44.5-31,60.3-54c14.9-21.8,24.1-45.7,29-66.9c3.9-0.3,13.1-1.7,22.5-7.1
			c11.2-6.5,24.6-19.8,24.6-46.6C447.5,285.9,442.5,273,432.7,264.3z M38.3,328.2c-8.4-4.8-12.4-13.2-12.4-25.6
			c0-9.4,2.2-16.1,6.4-20c3.2-2.9,7.3-4,10.4-4.3v28.6c0,2.1-0.1,11,1.2,23.7C42.1,330.1,40.2,329.3,38.3,328.2z M38.3,106.4
			c1.1-3.7,2.5-7.9,4.3-12.4c9.4,5.1,30,15.3,53.9,20.9c11.3,2.7,22.1,4,32.1,4c30.1,0,53.9-11.9,69.9-35.3
			c3.8-5.5,2.4-13.1-3.2-16.9c-5.5-3.8-13.1-2.4-16.9,3.2c-15.3,22.4-40.8,29.6-75.9,21.5c-21-4.8-39.5-13.9-47.9-18.5
			c15.5-20.3,44.2-40.6,99.7-47.2c8-1,16-1.4,23.7-1.4c74.9,0,134.9,40.3,139.1,43.2v7.6c-2.5,23.7-20.2,42.3-20.2,42.3
			c-34.7,31-68.5,45.5-99.5,50c0,0,0,0-0.1,0c-1.4,0.2-2.8,0.4-4.2,0.6c-6,0.7-11.9,1-17.6,1c-9.5,0-18.8-0.5-27.6-2.5
			C81.4,151.6,38.3,106.4,38.3,106.4z M380.9,318.7c0,32.8-22.2,157-170.3,157S66.9,307.2,66.9,307.2V162.4c0.6-0.4,1.1-0.8,1.6-1.2
			c19.9,12.2,45.2,23.9,74.4,29.2c11,2.2,21.6,3.2,31.8,3.2c7.6,0,15-0.5,22.1-1.5c37.6-4.5,73.8-21.1,108-49.5
			c2.4,20.7,7.5,36.8,14,49.5c0.4,1,0.9,1.9,1.4,2.9c0.3,0.5,1,1.7,2,3.2c4.3,7.2,9.1,13.1,14,17.8c9.6,10.1,23.1,20.6,39.6,23.8
			c1.5,0.3,3.1,0.4,4.6,0.4c0.1,0,0.2,0,0.2,0C380.9,251.4,380.9,290.8,380.9,318.7z M381.2,90.8l-0.5,121.9
			c-3.3-0.5-12.6-2.4-22.2-9.7c-1.8-1.4-3.5-2.9-5.2-4.5c-5.4-5.9-9.2-11.5-10.9-14.2c-0.3-0.6-0.6-1.1-0.9-1.7
			c0,0-10.6-21.7-13-37.9c-2.4-16.2,3.2-88.7,3.2-88.7s2.6-3.7,9.8-4.8c0.2,0,0.4,0,0.7,0C382.9,51.6,381.2,90.8,381.2,90.8z
			 M411.4,327.8c-2.3,1.4-4.7,2.4-6.8,3c0.4-4.4,0.6-8.4,0.6-12.1v-40.5c3.1,0.2,7.9,1.2,11.5,4.5c4.3,3.9,6.4,10.6,6.4,20
			C423.2,314.7,419.3,322.9,411.4,327.8z"/>
	</g>
</g>
</svg>
