<?xml version="1.0" encoding="utf-8"?>
<!-- Generator: Adobe Illustrator 22.0.1, SVG Export Plug-In . SVG Version: 6.00 Build 0)  -->
<svg version="1.1" id="Capa_1" xmlns="http://www.w3.org/2000/svg" xmlns:xlink="http://www.w3.org/1999/xlink" x="0px" y="0px"
	 viewBox="0 0 504.2 504.4" style="enable-background:new 0 0 504.2 504.4;" xml:space="preserve">
<style type="text/css">
	.st0{fill:#35B3DC;}
</style>
<g>
	<path class="st0" d="M145.8,79.9c-48.5,1.8-70.8,23.6-81,41.6c-15.6,27.6-11.2,61.1-0.5,80.5c15.6,28.4,35.5,68,35.7,68.4
		c2.6,5.3,7.9,8.3,13.4,8.3c2.3,0,4.5-0.5,6.7-1.6c7.4-3.7,10.4-12.7,6.7-20.1c-0.2-0.4-20.3-40.6-36.2-69.4
		c-6.9-12.4-9.1-34.6,0.4-51.3c9.3-16.5,28.2-25.4,56-26.4c8.3-0.3,14.7-7.3,14.4-15.5S154,79.6,145.8,79.9z"/>
	<path class="st0" d="M481.2,68.9h-44.9V23c0-12.7-10.3-23-23-23h-41.9c-11.9,0-21.8,9.1-22.9,20.8c-13.2,0-25.4,2-35.9,4.9
		c-34.5,9.3-58.6,28.8-59.6,29.6l-1.3,1l-1,1.3c-1,1.2-7,7.4-12.9,7.7c-1.2,0.1-4.7,0.3-10.2-5.2C212.7,45.2,187,34.3,159,30.9
		c-32.2-3.9-64.1,2.5-90,18C43.9,64,25.3,83.8,14,107.8c-10.3,21.7-12.7,42.4-13.7,56c-2.2,32.9,8,63.8,31.2,94.6
		c11.9,15.7,10.7,40.9,9.1,75.8c-0.8,16.9-1.6,36-1.3,57.6c0.5,29.7,10.7,54.7,30.2,74.5c15.8,16,34,24.9,46.1,30.8
		c3.3,1.6,6.1,3,7.8,4c3.8,2.3,7.8,3.4,11.7,3.4c3.5,0,7-0.9,10.1-2.8c8.5-4.9,13-15,14.8-32.6c0.9-9,0.8-17.4,0.8-18.9
		c0.1-92.6,61.5-115.8,76.4-120.1c30.2,10.4,51.8,33.5,64.4,68.9c10,28.2,10.3,53.9,10.3,54.1l0,0.7c0.9,19.8,3.8,40.9,18.7,47
		c6.4,2.6,12.5,1.5,17.1-0.9c8.5-2.2,31-10.2,56-35.8c26.3-26.9,25.4-70.5,24.5-116.7c-0.2-11-0.5-22.5-0.3-33.8
		c0.5-46.6,18-65.7,19.5-67.2l1.6-1.3l1.4-2.4c0.6-1.1,15.5-27.3,21.8-62.2c1.5-8,2.3-15.9,2.7-23.6h6.5c12.7,0,23-10.3,23-23V91.9
		C504.2,79.2,493.9,68.9,481.2,68.9z M442.7,174.3c-4.5,25.6-14.6,46.2-17.6,51.9c-7,7.5-26.6,33.2-27.2,87
		c-0.1,11.8,0.1,23.5,0.3,34.8c0.9,41.4,1.6,77.2-15.9,95.1c-16.5,16.9-31.3,23.9-38.5,26.6c-0.7-3.5-1.4-8.9-1.8-17
		c0-3.7-0.7-31.5-11.7-62.8c-15.5-44.2-44.2-74.6-83.1-88.1c-3.3-1.8-7.5-2.9-12.5-1.9l-0.1,0c-1.1,0.2-27,5.5-52.5,26.9
		c-23.3,19.6-51.1,56.9-51.1,123.5l0,0.4c0.2,6.6-0.3,14.2-1.2,19.7c-0.3-0.2-0.6-0.3-0.9-0.5c-21.9-10.7-58.5-28.5-59.4-78.8
		c-0.4-20.6,0.5-39.2,1.2-55.6c1.8-39.6,3.3-70.9-15.1-95.3c-18.9-25.1-26.9-48.7-25.2-74.4c1.8-26.3,9.4-64.3,54.2-91.2
		c16.2-9.7,35.6-14.8,56-14.8c4.9,0,9.9,0.3,14.9,0.9c21,2.6,41,10.6,51,20.6c12.4,12.4,24.9,14.4,33.2,13.9
		c17.1-1,29.2-12.9,33.3-17.5c4.3-3.3,23.3-16.9,48.4-23.4c9.3-2.4,18.3-3.6,27.1-3.6v18.1h-38.9c-12.7,0-23,10.3-23,23v41.9
		c0,12.7,10.3,23,23,23h38.9v37.9c0,12.7,10.3,23,23,23h41.9c12.7,0,23-10.3,23-23v-37.9h8.4C444.4,162.5,443.7,168.3,442.7,174.3z
		 M481.2,133.8h-67.9v60.9h-41.9v-60.9h-61.9V91.9h61.9V23h41.9v68.9h67.9V133.8z"/>
</g>
</svg>
